<svg width="207" height="44" viewBox="0 0 207 44" fill="none" xmlns="http://www.w3.org/2000/svg">
<path d="M31.7177 28.3691L31.9376 28.032C32.0475 27.8581 32.1575 27.6841 32.2564 27.5101L32.4543 27.1404C32.5533 26.9556 32.6522 26.7598 32.7402 26.575C32.8281 26.3901 32.8391 26.3466 32.8831 26.2379C33.0166 25.9361 33.134 25.6276 33.2349 25.3136C33.2299 25.2558 33.2299 25.1976 33.2349 25.1397C33.3119 24.8678 33.3888 24.596 33.4548 24.3133C33.4548 24.2045 33.4548 24.0958 33.5098 23.9871C33.5647 23.8783 33.5977 23.4869 33.6307 23.2368V22.9215C33.6307 22.5735 33.6857 22.2147 33.6857 21.8341C33.6874 19.7709 33.1291 17.7451 32.069 15.9681C31.009 14.1911 29.4862 12.7281 27.6594 11.7318C25.8326 10.7354 23.769 10.2424 21.6838 10.304C19.5986 10.3656 17.5684 10.9796 15.805 12.082C14.0417 13.1844 12.6098 14.7347 11.659 16.5711C10.7081 18.4075 10.2731 20.4627 10.3993 22.5222C10.5255 24.5816 11.2083 26.5698 12.3765 28.2791C13.5447 29.9885 15.1554 31.3564 17.0404 32.2401V21.8558C17.0366 20.8835 17.3227 19.9316 17.8627 19.119C18.4028 18.3065 19.173 17.6694 20.0771 17.2873C20.9812 16.9052 21.9791 16.7951 22.9461 16.9706C23.9131 17.1462 24.8063 17.5998 25.5142 18.2746C26.2221 18.9494 26.7133 19.8155 26.9263 20.7648C27.1393 21.7141 27.0648 22.7044 26.712 23.612C26.3592 24.5197 25.7439 25.3044 24.9428 25.8681C24.1417 26.4318 23.1904 26.7495 22.2077 26.7816L26.3855 32.5446L34.5103 43.7335H42.701L31.6737 28.4235L31.7177 28.3691Z" fill="#0078FF" fill-opacity="0.5"/>
<path d="M22.1083 37.1442C18.7669 37.1465 15.5146 36.0787 12.8379 34.1005C10.1613 32.1223 8.20426 29.3401 7.25963 26.1702C6.31501 23.0002 6.43359 19.613 7.59764 16.5153C8.76168 13.4176 10.9086 10.7759 13.7172 8.98556C16.5258 7.19521 19.845 6.35243 23.1782 6.58331C26.5115 6.8142 29.6795 8.10634 32.2083 10.2664C34.7372 12.4265 36.4908 15.3383 37.207 18.5663C37.9231 21.7942 37.5631 25.1647 36.1809 28.1735L40.4577 34.0669C43.2092 30.0192 44.5134 25.1777 44.1629 20.3125C43.8123 15.4474 41.8272 10.8378 38.5232 7.21674C35.2191 3.59573 30.7859 1.1712 25.9284 0.328705C21.0708 -0.513788 16.068 0.274126 11.7153 2.56715C7.36263 4.86018 3.91006 8.52667 1.90662 12.9836C-0.0968278 17.4405 -0.536119 22.4319 0.658598 27.1641C1.85332 31.8964 4.61345 36.0977 8.50008 39.1C12.3867 42.1024 17.1767 43.7333 22.1083 43.7336C24.476 43.7471 26.8302 43.3798 29.0787 42.6462L24.9229 36.9267C23.9931 37.0823 23.0512 37.1551 22.1083 37.1442Z" fill="#0078FF"/>
<path d="M61.8516 13.4074H68.2942C69.3774 13.3899 70.4546 13.5706 71.4715 13.9402C72.3554 14.2553 73.1639 14.7476 73.8463 15.3864C74.4939 15.9991 75.0034 16.7402 75.3415 17.5611C75.6868 18.4076 75.8623 19.3124 75.8582 20.2251C75.859 20.852 75.7814 21.4765 75.6273 22.0845C75.4678 22.6879 75.2235 23.2662 74.9017 23.8025C74.2132 24.94 73.1493 25.8079 71.8893 26.26L76.5618 33.6975H72.0872L65.9634 23.6721H67.8764C68.5296 23.6888 69.1796 23.5779 69.7894 23.3458C70.2651 23.1517 70.6954 22.863 71.0537 22.4977C71.3552 22.1843 71.5907 21.8146 71.7464 21.4104C71.8828 21.041 71.9535 20.651 71.9553 20.2578C71.9823 19.8193 71.9127 19.3802 71.7514 18.971C71.59 18.5617 71.3408 18.192 71.0208 17.8873C70.1079 17.2455 68.991 16.952 67.8764 17.0609H65.7875V33.6975H61.8516V13.4074Z" fill="#0D243C"/>
<path d="M83.6321 34.0011C82.8528 33.9867 82.0823 33.8357 81.3563 33.5553C80.5421 33.2558 79.795 32.8014 79.1574 32.2179C78.4617 31.5861 77.9042 30.8201 77.5193 29.967C77.0811 28.9544 76.8674 27.8606 76.8926 26.7593C76.8705 25.6629 77.0802 24.5741 77.5083 23.5625C77.8843 22.7096 78.4302 21.9404 79.1135 21.3008C79.7444 20.7086 80.4933 20.2531 81.3123 19.9634C82.0827 19.6793 82.8978 19.532 83.72 19.5284C84.5532 19.5128 85.3805 19.6683 86.1498 19.9851C86.8097 20.261 87.4076 20.6639 87.9088 21.1703V19.8111H91.7678V33.6967H87.8759V32.1635C87.382 32.7235 86.7753 33.1753 86.0948 33.4901C85.3222 33.8385 84.4811 34.0131 83.6321 34.0011ZM84.3907 30.489C84.8893 30.4982 85.3841 30.4018 85.8419 30.2063C86.2611 30.0119 86.6353 29.7343 86.9413 29.3907C87.267 29.044 87.5209 28.6377 87.689 28.1946C88.0408 27.2545 88.0408 26.2207 87.689 25.2805C87.5233 24.8395 87.269 24.4363 86.9413 24.0953C86.6105 23.7468 86.2099 23.4701 85.7651 23.2829C85.3203 23.0957 84.8411 23.0021 84.3577 23.008C83.8413 22.9986 83.3285 23.0948 82.8515 23.2907C82.4018 23.4644 81.993 23.7278 81.6506 24.0645C81.3083 24.4013 81.0397 24.8041 80.8615 25.2479C80.4952 26.208 80.4952 27.2672 80.8615 28.2273C81.0413 28.6714 81.3106 29.0747 81.6531 29.4125C81.9999 29.7476 82.4061 30.0167 82.8515 30.2063C83.3387 30.4066 83.8632 30.5029 84.3907 30.489Z" fill="#0D243C"/>
<path d="M94.1206 19.8107H96.5173V16.5487L100.376 14.4609V19.8107H103.015V23.225H100.376V27.6506C100.368 28.0905 100.394 28.5303 100.453 28.9663C100.493 29.2486 100.615 29.5132 100.805 29.7274C101.026 29.9216 101.303 30.0432 101.597 30.0754C102.067 30.1394 102.541 30.1685 103.015 30.1624V33.6963H102.454C101.507 33.7183 100.56 33.616 99.6397 33.3918C98.9655 33.2217 98.3479 32.8806 97.8477 32.4023C97.351 31.8787 97.0055 31.2328 96.8472 30.5321C96.6306 29.5981 96.5309 28.6413 96.5503 27.6832V23.225H94.1206V19.8107Z" fill="#0D243C"/>
<path d="M111.996 34.0016C110.961 34.0125 109.933 33.8204 108.973 33.4362C108.1 33.0759 107.307 32.5473 106.642 31.8813C105.986 31.2249 105.47 30.4446 105.125 29.5869C104.756 28.6893 104.57 27.7287 104.575 26.7598C104.557 25.7807 104.752 24.8091 105.147 23.9109C105.508 23.051 106.039 22.271 106.708 21.6166C107.38 20.93 108.185 20.3837 109.074 20.0102C109.964 19.6366 110.92 19.4434 111.886 19.4419C112.893 19.4304 113.891 19.619 114.822 19.9965C115.686 20.3508 116.468 20.8762 117.12 21.5405C117.767 22.2266 118.271 23.0321 118.604 23.9109C118.968 24.8058 119.151 25.7626 119.143 26.7272V28.119H108.28C108.477 28.8623 108.928 29.5155 109.556 29.9675C110.281 30.4512 111.144 30.6913 112.018 30.6526C112.758 30.6669 113.486 30.4625 114.107 30.0654C114.688 29.6703 115.149 29.1249 115.438 28.4887L118.505 30.3046C117.905 31.3946 117.03 32.3123 115.965 32.9686C114.768 33.6768 113.391 34.0349 111.996 34.0016ZM111.908 22.8236C111.155 22.8056 110.414 23.0183 109.787 23.4325C109.206 23.8359 108.744 24.3835 108.445 25.02H115.262C115.034 24.3534 114.594 23.7774 114.008 23.3781C113.379 22.9929 112.648 22.8 111.908 22.8236Z" fill="#0D243C"/>
<path d="M149.728 34.0023C149.005 34.0418 148.282 33.9284 147.607 33.6696C146.932 33.4109 146.321 33.0127 145.814 32.5018C144.808 31.3213 144.304 29.8014 144.407 28.2611V19.7797H148.321V27.7609C148.274 28.5384 148.503 29.3078 148.969 29.9356C149.213 30.2024 149.515 30.4106 149.852 30.5444C150.189 30.6782 150.553 30.734 150.915 30.7076C151.267 30.7088 151.615 30.6389 151.938 30.5025C152.261 30.366 152.553 30.1657 152.795 29.9139C153.386 29.1969 153.67 28.2799 153.587 27.3586V19.7471H157.435V33.6979H153.609V32.1756C153.146 32.7245 152.573 33.1725 151.927 33.4913C151.245 33.8312 150.491 34.0064 149.728 34.0023Z" fill="#0D243C"/>
<path d="M166.979 34.0011C166.005 34.005 165.039 33.8126 164.143 33.4357C163.274 33.0658 162.484 32.5384 161.812 31.8808C160.441 30.523 159.672 28.6831 159.672 26.7647C159.672 24.8464 160.441 23.0064 161.812 21.6487C162.484 20.9911 163.274 20.4637 164.143 20.0938C165.039 19.7169 166.005 19.5245 166.979 19.5284C167.957 19.5257 168.925 19.718 169.827 20.0938C170.689 20.4673 171.476 20.9944 172.146 21.6487C172.812 22.2935 173.343 23.0621 173.707 23.9104C174.455 25.719 174.455 27.7453 173.707 29.5538C173.347 30.4138 172.816 31.1938 172.146 31.8481C171.476 32.5025 170.689 33.0295 169.827 33.4031C168.928 33.79 167.959 33.9934 166.979 34.0011ZM166.979 30.3802C167.457 30.3827 167.929 30.2826 168.364 30.0866C168.776 29.8986 169.149 29.6368 169.464 29.3146C169.78 28.9998 170.037 28.6316 170.222 28.2272C170.411 27.7812 170.508 27.3025 170.508 26.8191C170.508 26.3357 170.411 25.8571 170.222 25.411C170.037 25.0067 169.78 24.6384 169.464 24.3236C169.149 24.0014 168.776 23.7396 168.364 23.5516C167.929 23.3557 167.457 23.2555 166.979 23.258C166.498 23.2539 166.021 23.3541 165.583 23.5516C164.941 23.8397 164.398 24.3071 164.021 24.8963C163.644 25.4856 163.449 26.1709 163.461 26.868C163.456 27.3516 163.546 27.8316 163.725 28.2816C164.07 29.1333 164.736 29.8194 165.583 30.1954C166.025 30.3742 166.502 30.4558 166.979 30.4346V30.3802Z" fill="#0D243C"/>
<path d="M175.391 19.8107H177.787V16.5487L181.646 14.4609V19.8107H184.285V23.225H181.646V27.6506C181.638 28.0905 181.664 28.5303 181.723 28.9663C181.758 29.2499 181.881 29.5158 182.075 29.7274C182.296 29.9216 182.573 30.0432 182.867 30.0754C183.337 30.1394 183.811 30.1685 184.285 30.1624V33.6963H183.724C182.777 33.7183 181.83 33.616 180.91 33.3918C180.221 33.2208 179.592 32.8718 179.085 32.3806C178.588 31.8569 178.242 31.2111 178.084 30.5103C177.868 29.5763 177.768 28.6195 177.787 27.6615V23.2033H175.391V19.8107Z" fill="#0D243C"/>
<path d="M193.265 34.0012C192.229 34.0122 191.202 33.82 190.242 33.4358C189.364 33.0768 188.568 32.5481 187.9 31.8809C187.244 31.2245 186.728 30.4442 186.383 29.5866C186.014 28.6889 185.827 27.7283 185.833 26.7594C185.823 25.7905 186.022 24.8305 186.416 23.9432C186.783 23.0814 187.321 22.3012 187.999 21.6488C188.671 20.9622 189.476 20.4159 190.365 20.0424C191.254 19.6688 192.211 19.4756 193.177 19.4741C194.183 19.4626 195.181 19.6512 196.112 20.0287C196.977 20.383 197.759 20.9085 198.41 21.5727C199.046 22.251 199.543 23.045 199.872 23.9106C200.237 24.8054 200.42 25.7622 200.411 26.7268V28.1186H189.549C189.745 28.8619 190.196 29.5151 190.824 29.9671C191.55 30.4508 192.413 30.6909 193.287 30.6522C194.027 30.6665 194.754 30.4621 195.376 30.065C195.989 29.6822 196.481 29.1356 196.794 28.4883L199.861 30.3042C199.262 31.3942 198.387 32.312 197.322 32.9682C196.099 33.6925 194.69 34.0512 193.265 34.0012ZM193.177 22.8232C192.423 22.8052 191.682 23.0179 191.055 23.4321C190.475 23.8355 190.012 24.3831 189.714 25.0197H196.53C196.302 24.353 195.863 23.777 195.277 23.3777C194.647 22.9925 193.917 22.7996 193.177 22.8232Z" fill="#0D243C"/>
<path d="M142.47 33.6969L139.677 30.163C140.432 29.2567 141.02 28.2261 141.414 27.1184C141.818 25.9682 142.023 24.7586 142.019 23.541C142.029 22.1721 141.763 20.8149 141.237 19.549C140.71 18.283 139.933 17.1338 138.951 16.1687C138.004 15.2233 136.885 14.4633 135.653 13.9287C134.354 13.3835 132.958 13.1025 131.547 13.1025C130.136 13.1025 128.739 13.3835 127.441 13.9287C126.206 14.4587 125.086 15.2192 124.142 16.1687C122.682 17.6546 121.696 19.5317 121.305 21.5672C120.914 23.6026 121.136 25.7068 121.943 27.6186C122.451 28.8549 123.198 29.9814 124.142 30.935C125.093 31.8588 126.212 32.5966 127.441 33.1097C128.737 33.6676 130.138 33.9492 131.552 33.9361C132.318 33.9396 133.081 33.8594 133.828 33.6969H134.125L131.431 30.2065C130.557 30.2122 129.691 30.0343 128.892 29.6845C128.112 29.3423 127.404 28.8592 126.803 28.2601C126.207 27.6524 125.73 26.9409 125.396 26.1615C125.05 25.3454 124.875 24.469 124.879 23.5845C124.877 22.7001 125.053 21.8242 125.396 21.0074C125.733 20.2295 126.209 19.5185 126.803 18.9088C127.407 18.3121 128.12 17.8326 128.903 17.4953C129.72 17.1435 130.601 16.962 131.492 16.962C132.383 16.962 133.264 17.1435 134.081 17.4953C134.866 17.835 135.582 18.3141 136.192 18.9088C137.029 19.7419 137.627 20.7801 137.924 21.917C138.222 23.0539 138.208 24.2486 137.885 25.3786C137.714 25.9367 137.478 26.4731 137.181 26.977L134.62 23.7149L131.662 25.8897L137.687 33.6969H142.47Z" fill="#0D243C"/>
<path d="M201.278 15.7882H200.398V15.2119H202.795V15.81H201.916V18.474H201.278V15.7882Z" fill="#0D243C"/>
<path d="M203.733 15.2119H204.36L205.361 16.582L206.394 15.2119H206.999V18.474H206.361V16.1905L205.361 17.528L204.371 16.2014V18.474H203.733V15.2119Z" fill="#0D243C"/>
</svg>